<svg width="393" height="852" viewBox="0 0 393 852" fill="none" xmlns="http://www.w3.org/2000/svg">
<path fill-rule="evenodd" clip-rule="evenodd" d="M0 0H40C17.9086 0 1.02597e-05 17.9086 9.98798e-06 40L0 812V0ZM0 812C0 834.091 17.9086 852 40 852H0V812ZM393 40C393 17.9086 375.091 0 353 0H393V40ZM353 852C375.091 852 393 834.091 393 812V852H353ZM150.5 10C140.283 10 132 18.2827 132 28.5C132 38.7173 140.283 47 150.5 47H239.5C249.717 47 258 38.7173 258 28.5C258 18.2827 249.717 10 239.5 10H150.5Z" fill="black"/>
</svg>
