<svg width="293" height="293" viewBox="0 0 293 293" fill="none" xmlns="http://www.w3.org/2000/svg">
<g clip-path="url(#clip0_1_2)">
<path d="M287 69.4C285.321 67.6538 283.3 66.2729 281.063 65.3437C278.826 64.4145 276.422 63.9571 274 64H18.4C13.4 64 9.1 65.8 5.5 69.4C3.76039 71.0469 2.3753 73.0317 1.42957 75.2326C0.483847 77.4336 -0.00261069 79.8045 -4.84478e-06 82.2C-4.84478e-06 87.2 1.8 91.5 5.4 95.1L133.4 223C137 226.6 141.2 228.4 146.2 228.4C151.2 228.4 155.4 226.6 159 223L287 95C290.5 91.5 292.4 87.2 292.4 82.2C292.4 77.2 290.5 73 286.9 69.4H287Z" fill="white"/>
</g>
<defs>
<clipPath id="clip0_1_2">
<rect width="292.4" height="292.4" fill="white"/>
</clipPath>
</defs>
</svg>
