<svg width="104" height="40" viewBox="0 0 104 40" fill="none" xmlns="http://www.w3.org/2000/svg">
<path d="M8.47507 27.514C3.56413 27.514 0 23.8888 0 18.9084C0 14.0259 3.5477 10.4824 8.4258 10.4824C10.5117 10.4824 12.3348 11.0539 13.8459 12.1643C14.2401 12.4583 14.3222 12.8992 14.0594 13.3237C14.0594 13.3237 13.4189 14.2382 13.2546 14.4505C11.1851 12.9155 9.75619 12.7032 8.50792 12.7032C4.96022 12.7032 2.48011 15.2343 2.48011 18.8757C2.48011 22.06 4.5496 25.2768 8.52435 25.2768C10.2818 25.2768 11.9899 24.5747 13.5995 23.1867C13.7474 23.3663 14.2072 23.9378 14.47 24.2644C14.7657 24.6563 14.7164 25.0972 14.3386 25.4401C13.9444 25.7831 11.7928 27.514 8.47507 27.514Z" fill="white"/>
<path d="M16.8516 27.2048V15.7905C16.8516 15.3007 17.1144 15.0394 17.6071 15.0394H19.0525V16.0191C19.0525 16.5254 18.9868 16.9336 18.9868 16.9336L18.9703 16.9826H19.1017L19.1182 16.9663C20.0379 15.2027 21.8446 14.9414 22.8301 14.9414H22.863C23.3721 14.9414 23.6021 15.17 23.6021 15.6926V17.0806C19.6109 17.1785 19.151 20.0362 19.151 22.1753V26.4373C19.151 26.9435 18.9046 27.1885 18.3955 27.1885H16.8516V27.2048Z" fill="white"/>
<path d="M30.8294 27.4974C27.0846 27.4974 24.2432 24.7541 24.2432 21.0963C24.2432 17.4712 27.0682 14.7441 30.8294 14.7441C34.5906 14.7441 37.4321 17.4712 37.4321 21.0963C37.4321 24.7541 34.5906 27.4974 30.8294 27.4974ZM30.8294 16.7037C28.4314 16.7037 26.5426 18.6305 26.5426 21.0963C26.5426 23.5947 28.415 25.5379 30.8294 25.5379C33.2767 25.5379 35.1162 23.6273 35.1162 21.0963C35.0998 18.5979 33.2603 16.7037 30.8294 16.7037Z" fill="white"/>
<path d="M39.5664 33.8018L39.5828 15.7905C39.5828 15.2843 39.8292 15.0393 40.3384 15.0393H41.6852V15.8884C41.6852 16.2477 41.6359 16.5253 41.6359 16.5416V16.5906H41.7509L41.7673 16.5743C42.2929 15.8884 43.574 14.7617 46.1527 14.7617C49.4704 14.7617 51.8027 17.3908 51.8027 21.1302C51.8027 24.8206 49.3554 27.4986 45.9884 27.4986C44.7894 27.4986 43.1305 27.2374 41.9151 25.9473L41.8987 25.931H41.7673L41.7837 25.98C41.7837 25.98 41.8494 26.4209 41.8494 27.0414V33.0506C41.8494 33.5568 41.6031 33.8018 41.1103 33.8018H39.5664ZM45.8242 16.7212C43.8368 16.7212 41.833 18.0929 41.833 21.1628C41.833 23.6612 43.5247 25.5391 45.7585 25.5391C47.6144 25.5391 49.4868 24.1838 49.4868 21.1465C49.4868 18.5011 48.0086 16.7212 45.8242 16.7212Z" fill="white"/>
<path d="M64.8774 27.2039L62.3152 19.3658C62.1017 18.7453 61.9703 18.0431 61.9703 18.0431V18.0105H61.8553V18.0431C61.8553 18.0431 61.7075 18.7453 61.4939 19.3658C61.4939 19.3658 59.293 26.1098 59.1452 26.5834C58.9974 27.0243 58.751 27.2039 58.3076 27.2039H56.4187L52.7232 15.8713C52.6411 15.61 52.6575 15.3978 52.7725 15.2508C52.8874 15.1038 53.0845 15.0222 53.3638 15.0222H54.842L57.4371 23.3012C57.6013 23.9217 57.7327 24.5912 57.7327 24.6075V24.6402H57.8477V24.6075C57.8477 24.6075 57.9955 23.9217 58.1926 23.3012C58.1926 23.3012 60.5577 16.002 60.6727 15.61C60.837 15.1038 61.0998 15.0059 61.4939 15.0059H62.9065L65.6165 23.3012C65.7808 23.9217 65.9286 24.5912 65.9286 24.6075V24.6402H66.0436V24.6075C66.0436 24.6075 66.175 23.9217 66.3556 23.3012C66.3721 23.2359 68.6715 15.953 68.77 15.6264C68.9014 15.1855 69.1478 15.0059 69.6077 15.0059H71.3487C71.0695 15.855 67.7189 26.1098 67.571 26.5344C67.4232 26.9916 67.1933 27.1712 66.717 27.1712H64.8774V27.2039Z" fill="white"/>
<path d="M73.1387 27.2045V15.7902C73.1387 15.3003 73.4015 15.0391 73.8942 15.0391H75.4053V26.437C75.4053 26.9432 75.1425 27.2045 74.6498 27.2045H73.1387Z" fill="white"/>
<path d="M82.0906 27.4974C80.4975 27.4974 79.1178 27.0565 77.9681 26.1747C77.4918 25.8155 77.6232 25.4072 77.8203 25.146C78.0502 24.803 78.3458 24.3785 78.4772 24.2152C79.1178 24.7541 80.4318 25.6358 82.1728 25.6358C83.4703 25.6358 84.308 24.9827 84.308 23.9703C84.308 22.9088 83.1254 22.4679 81.7457 21.9617C79.9719 21.3086 77.9516 20.5574 77.9516 18.2386C77.9516 15.8219 80.169 14.7441 82.3699 14.7441C83.9959 14.7441 85.0635 15.2667 85.7205 15.6586C86.1639 15.9199 86.2625 16.2791 85.9997 16.7037C85.8026 17.0303 85.5562 17.4222 85.4905 17.5365C84.4722 16.867 83.5031 16.5894 82.2549 16.5894C80.9573 16.5894 80.1361 17.1935 80.1361 18.1733C80.1361 19.2674 81.3351 19.6919 82.7148 20.1982C84.4886 20.8513 86.4924 21.5698 86.4924 23.9049C86.476 26.0278 84.6693 27.4974 82.0906 27.4974Z" fill="white"/>
<path d="M94.7211 27.4986C90.9599 27.4986 88.2334 24.8206 88.2334 21.1302C88.2334 17.3744 90.7464 14.7617 94.3598 14.7617C97.6282 14.7617 99.6649 17.0805 99.6649 20.8036C99.6649 21.2935 99.2707 21.5874 98.8765 21.5874C98.4988 21.5874 90.5657 21.5874 90.5657 21.5874V21.6364C90.7792 23.9552 92.5531 25.5718 94.8689 25.5718C96.6263 25.5718 97.891 24.6573 98.4988 24.2001L99.09 25.2125C99.32 25.6044 99.2379 25.9637 98.8601 26.2249C98.1538 26.6822 96.6756 27.4986 94.7211 27.4986ZM94.2941 16.509C92.3888 16.509 90.9927 17.7827 90.6478 19.8075V19.8565H97.3326V19.8075C97.2669 17.7827 96.1008 16.509 94.2941 16.509Z" fill="white"/>
<path d="M83.5688 2.64453C83.0597 2.70985 81.5322 2.9058 80.0375 3.24872C78.0009 3.70594 76.1449 4.42443 74.8638 5.60015C74.0425 6.3513 73.5005 7.1841 73.2377 8.39248C72.9585 9.66617 73.1228 11.0868 73.5498 12.6544C74.0425 12.5401 74.5189 12.5238 75.0116 12.4748C75.7343 12.4258 76.6212 12.3605 77.5738 12.1972C78.9864 11.9523 79.9718 11.4624 80.8752 10.2704C81.6471 9.22528 81.8935 7.77196 82.1235 6.72688C82.4191 5.33888 82.7148 4.39178 82.994 3.75493C83.1911 3.36302 83.306 3.08542 83.5688 2.64453ZM80.2346 10.1397C79.6598 10.8419 78.9864 11.3154 77.7874 11.5604C79.4791 10.7276 79.939 9.11097 80.2018 8.19653C80.3496 7.65766 80.4974 6.93916 80.6452 6.25333C80.8588 5.33888 81.1708 4.21215 81.5322 3.52632C81.8278 3.47733 82.4355 3.37935 82.5177 3.36302C82.2713 3.90189 81.8935 4.83267 81.4829 6.9065C81.1544 8.63742 80.7766 9.50288 80.2346 10.1397ZM76.4898 5.1266C75.143 6.30232 74.7652 7.41271 74.5845 8.40881C74.3875 9.5192 74.5681 10.7766 74.7981 11.8216C74.5024 11.887 74.1411 11.9523 74.0097 11.9849C73.714 10.8745 73.5826 9.61718 73.829 8.53944C74.2068 6.82486 75.2744 5.87775 76.4898 5.1266ZM75.1758 8.45779C75.4058 7.21676 76.0956 5.84509 77.9516 4.63672C76.5391 6.0737 76.1942 6.97182 75.9806 8.04956C75.8 8.91502 75.8821 10.0907 76.112 11.1848C75.8821 11.3644 75.5865 11.5114 75.3565 11.6094C75.1101 10.5153 75.0116 9.25793 75.1758 8.45779ZM76.6212 10.7602C76.4734 9.94377 76.3913 8.99667 76.5227 8.27817C76.8019 6.75954 77.7052 5.46952 79.0521 4.39178C78.8057 5.02862 78.625 5.81243 78.5265 6.26966C78.3129 7.28208 78.1323 8.22918 77.8366 8.98033C77.4917 9.82946 77.1304 10.2867 76.6212 10.7602ZM75.9971 11.8053C77.0811 11.3318 77.8695 10.45 78.3294 9.33958C78.7071 8.44147 78.8714 7.57601 79.0849 6.54726C79.1835 6.09003 79.4627 4.86533 79.8076 4.03253C80.0375 3.93455 80.481 3.78759 80.8423 3.68961C80.481 4.47342 80.2018 5.56749 80.0047 6.46561C79.6762 7.98424 79.4298 9.19262 78.7236 10.1397C78.0173 11.0542 77.0483 11.544 75.9971 11.8053Z" fill="#73DC78"/>
<path d="M102.473 14.7109C101.635 14.7109 100.962 15.3804 100.962 16.1969C100.962 17.0297 101.619 17.6992 102.473 17.6992C103.311 17.6992 103.968 17.046 103.968 16.1969C103.968 15.3641 103.311 14.7109 102.473 14.7109ZM103.327 17.144C103.114 17.3563 102.818 17.4869 102.506 17.4869H102.489C101.767 17.4869 101.225 16.9317 101.225 16.2132C101.225 15.4947 101.767 14.9395 102.457 14.9395H102.473C103.163 14.9395 103.705 15.4947 103.705 16.2132C103.705 16.5725 103.573 16.8991 103.327 17.144Z" fill="white"/>
<path d="M102.506 16.4102L102.834 16.9817H103.195L102.818 16.3612H102.834C103.048 16.3122 103.163 16.1652 103.163 15.9039C103.163 15.5447 102.998 15.4141 102.571 15.4141H101.849V16.9817H102.177V16.3938L102.506 16.4102ZM102.161 15.6753H102.538C102.736 15.6753 102.818 15.7406 102.818 15.9203C102.818 16.0999 102.736 16.1652 102.538 16.1652H102.161V15.6753Z" fill="white"/>
</svg>
