<svg width="27" height="26" viewBox="0 0 27 26" fill="none" xmlns="http://www.w3.org/2000/svg">
<path d="M26.8458 0.261597C25.5575 0.427113 21.7846 0.927113 18.0562 1.78228C12.995 2.9409 8.35079 4.76848 5.17601 7.73054C3.09247 9.57578 1.66227 12.0564 1.10243 14.796C0.395027 18.0305 0.801685 21.6098 1.89867 25.5719C3.10364 25.3326 4.32493 25.1862 5.55192 25.1339C7.6889 25.0133 9.81839 24.7831 11.9322 24.4443C15.4727 23.8305 17.9298 22.5788 20.134 19.5512C22.0717 16.9133 22.6903 13.2167 23.2473 10.5857C23.9923 7.06158 24.7373 4.69607 25.4344 3.07883C25.8273 2.10219 26.2994 1.15992 26.8458 0.261597ZM18.5313 19.2615C17.0857 21.0443 15.4009 22.2202 12.438 22.8374C16.6585 20.734 17.817 16.6305 18.4527 14.3167C18.8252 12.9616 19.1772 11.1374 19.5565 9.41675C20.0691 7.09951 20.8619 4.24435 21.7778 2.52021C22.5228 2.38573 24.0265 2.1409 24.2486 2.10642C23.6403 3.45814 22.6834 5.8271 21.6582 11.0719C20.8039 15.4305 19.8641 17.6167 18.5313 19.2615ZM9.19485 6.55468C5.82186 9.52364 4.89919 12.3236 4.44126 14.8512C3.92864 17.6822 4.40022 20.8443 4.96751 23.4719C4.2396 23.6408 3.34769 23.8167 2.99227 23.8788C2.23702 21.065 1.92604 17.896 2.52409 15.165C3.4673 10.8374 6.13968 8.44089 9.19485 6.55468ZM5.88682 14.9754C6.47119 11.8719 8.19013 8.37192 12.8276 5.32021C9.32472 8.95468 8.44989 11.2236 7.9031 13.9685C7.46909 16.1512 7.6673 19.1409 8.24484 21.8995C7.6582 22.3334 7.02549 22.7 6.35842 22.9926C5.71936 20.1753 5.50407 17.0202 5.88682 14.9754ZM9.50927 20.7926C9.16753 18.7236 8.94884 16.3305 9.27691 14.5029C9.96039 10.6512 12.2056 7.40641 15.5923 4.67538C15.0405 6.23011 14.5997 7.82267 14.2732 9.44088C13.7264 12.0133 13.2923 14.3891 12.5371 16.2857C11.914 18.0182 10.8735 19.567 9.50927 20.7926ZM7.93385 23.4546C10.6473 22.2684 12.585 20.0064 13.7435 17.2133C14.6798 14.9271 15.0797 12.765 15.6265 10.1409C15.8623 9.00295 16.5833 5.87193 17.4445 3.79262C18.286 3.45167 19.1478 3.16376 20.0247 2.93056C19.1259 4.89607 18.4424 7.65468 17.9435 9.94778C17.1233 13.7926 16.5321 16.8443 14.7414 19.2305C13.0019 21.5409 10.5482 22.7857 7.93385 23.4546Z" fill="#73DC78"/>
</svg>
