<svg width="117" height="34" viewBox="0 0 117 34" fill="none" xmlns="http://www.w3.org/2000/svg">
<g clip-path="url(#clip0_1271_23565)">
<path d="M47.3282 26.3312C47.099 26.1976 46.9462 26.1031 46.7901 26.0217C45.0962 25.1452 44.9998 22.8905 45.7106 21.8055C46.1956 21.0593 46.8432 20.4859 47.5872 20.0069C47.7134 19.9255 47.8396 19.8473 47.9725 19.7626C47.936 19.7072 47.9194 19.655 47.8861 19.6355C46.4048 18.8633 46.0262 17.5534 46.1026 16.0449C46.2088 14.0085 47.4843 12.855 49.3044 12.2392C51.626 11.454 53.9975 11.4507 56.3325 12.174C58.4914 12.842 59.2221 14.4809 59.0926 16.387C58.9431 18.6254 57.5846 20.0362 55.1002 20.6423C53.7318 20.9779 52.3435 21.0756 50.9452 20.8476C50.3473 20.7498 49.6066 21.2125 49.4206 21.7827C49.2778 22.2128 49.4705 22.7243 49.9786 22.9231C50.4768 23.1153 51.0249 23.2489 51.5563 23.2684C52.8782 23.3173 54.2068 23.2261 55.5254 23.3075C56.3424 23.3597 57.196 23.5063 57.9533 23.8061C59.6539 24.4773 60.348 25.8783 60.4278 27.5987C60.5507 30.1955 59.2188 31.9224 56.9204 32.9944C55.0072 33.8871 52.9646 34.0989 50.8721 33.9523C49.6066 33.8643 48.3744 33.6428 47.2252 33.0856C45.611 32.3004 44.7607 30.7559 45.053 29.0877C45.2423 28.0125 45.9963 27.3152 46.8233 26.6831C46.9661 26.5756 47.1156 26.4746 47.3248 26.328M52.3202 30.6484C53.3797 30.6582 54.3795 30.4692 55.2165 29.7785C55.9073 29.2083 56.183 28.2699 55.9107 27.5172C55.6682 26.8493 55.0205 26.4941 54.0175 26.4811C53.9278 26.4811 53.8348 26.4811 53.7418 26.4811C52.7852 26.4811 51.8253 26.53 50.8688 26.4681C50.148 26.4224 49.6498 26.7189 49.2014 27.1979C48.2183 28.2503 48.401 29.3907 49.6797 30.075C50.5001 30.5116 51.3902 30.668 52.3169 30.6517M54.8046 16.3349C54.8013 15.0022 53.951 14.1518 52.6324 14.1518C51.3936 14.1518 50.3872 15.1554 50.3905 16.3902C50.3938 17.6675 51.274 18.5472 52.5494 18.544C53.9211 18.544 54.808 17.674 54.8046 16.3349Z" fill="white"/>
<path d="M28.5924 12.0859C28.1307 13.197 27.7056 14.2299 27.2738 15.2595C25.374 19.8048 23.4675 24.3468 21.5743 28.8953C21.0495 30.153 20.362 31.2999 19.3191 32.2122C17.7314 33.6035 15.8382 33.9489 13.7922 33.7208C13.1479 33.6491 12.5102 33.5155 11.8359 33.4048C12.0319 32.5185 12.2046 31.6909 12.4172 30.8731C12.4404 30.7819 12.6862 30.6809 12.8191 30.6906C13.2741 30.7167 13.7225 30.8079 14.1742 30.8438C15.2171 30.922 16.0309 30.4821 16.6719 29.7099C17.489 28.7226 17.934 27.5431 18.4024 26.3799C18.4621 26.2333 18.3791 26.0052 18.3127 25.8326C16.5988 21.486 14.8817 17.1428 13.1645 12.7995C13.0815 12.5942 13.0017 12.389 12.9021 12.1283C13.1047 12.1153 13.2509 12.1022 13.397 12.1022C14.6591 12.1022 15.9213 12.1087 17.1834 12.0892C17.5189 12.0859 17.6949 12.1772 17.8178 12.5063C18.5983 14.6372 19.4121 16.7518 20.1893 18.8827C20.4716 19.6614 20.6808 20.4662 20.9465 21.3394C21.013 21.1863 21.0595 21.0885 21.096 20.9908C22.1821 18.117 23.2682 15.2432 24.3676 12.3727C24.4141 12.2554 24.5934 12.1055 24.7097 12.1055C25.9718 12.0859 27.2306 12.0892 28.5924 12.0892" fill="white"/>
<path d="M90.6231 26.1206C89.1484 26.1206 87.7102 26.1206 86.2023 26.1239C86.2023 25.9414 86.2023 25.772 86.2023 25.5993C86.2023 22.8395 86.1957 20.083 86.1923 17.3233C86.1923 17.131 86.199 16.9355 86.1791 16.7433C86.0827 15.6094 85.4483 15.0392 84.2958 14.9676C83.1466 14.8991 82.2332 15.3748 81.4095 16.0786C81.2833 16.1861 81.2501 16.4468 81.2501 16.639C81.2435 19.6073 81.2501 22.5723 81.2501 25.5406C81.2501 25.7198 81.2501 25.8958 81.2501 26.1076C81.1106 26.1271 80.9943 26.1564 80.8814 26.1564C79.6658 26.1597 78.4468 26.1532 77.2312 26.1662C76.919 26.1727 76.8127 26.0782 76.8127 25.7622C76.816 21.3212 76.8127 16.8769 76.8027 12.4326C76.8027 12.198 76.8227 12.0286 77.1316 12.0319C78.3804 12.0416 79.6259 12.0319 80.8715 12.0384C80.9445 12.0384 81.0143 12.0644 81.1338 12.0905C81.1338 12.4652 81.1338 12.8269 81.1338 13.257C81.3298 13.1494 81.456 13.0778 81.5856 13.0061C83.2795 12.0319 85.0797 11.4812 87.0625 11.781C89.2015 12.1035 90.5268 13.4753 90.5866 15.6909C90.6796 19.1479 90.6164 22.6082 90.6198 26.1239" fill="white"/>
<path d="M43.4055 26.1714C43.1896 26.1811 43.0269 26.1942 42.8641 26.1942C41.7847 26.1942 40.7052 26.1974 39.6258 26.1974C39.205 26.1974 38.9947 25.9835 38.9947 25.5555C38.9914 22.9001 38.988 20.2478 38.9847 17.5923C38.9847 17.2796 38.9681 16.9668 38.9415 16.654C38.8585 15.7156 38.2972 15.1584 37.3572 15.0346C36.1117 14.8717 35.0954 15.3507 34.1986 16.1294C34.0823 16.2304 34.0591 16.478 34.0591 16.654C34.0524 19.6516 34.0491 22.6492 34.0757 25.6468C34.079 26.1192 33.9362 26.2202 33.4845 26.2072C32.3751 26.1779 31.2658 26.2007 30.1564 26.2007C29.997 26.2007 29.8309 26.1844 29.6316 26.1779V25.6533C29.6283 21.3133 29.6316 16.9733 29.6084 12.6333C29.6084 12.1608 29.7512 12.0566 30.1963 12.0696C31.2757 12.0957 32.3552 12.0859 33.4347 12.0696C33.7801 12.0631 33.9495 12.1543 33.9063 12.5192C33.8797 12.7506 33.8997 12.9852 33.903 13.3175C34.1654 13.1676 34.3414 13.0666 34.5174 12.9656C36.1947 12.024 37.9783 11.5255 39.9247 11.8252C41.9474 12.138 43.3358 13.6107 43.3656 15.6211C43.4155 18.8272 43.3955 22.0334 43.4055 25.2395V26.1616" fill="white"/>
<path d="M73.0531 22.3277C73.4217 23.139 73.8004 23.9634 74.2122 24.8692C73.5413 25.1526 72.9069 25.4654 72.2426 25.6902C70.1169 26.4168 67.9381 26.7361 65.7094 26.2246C62.8563 25.5697 61.2289 23.732 60.6675 20.9658C60.2922 19.0922 60.4184 17.2448 61.3783 15.5375C62.7301 13.1361 64.8724 11.898 67.6292 11.7546C68.6289 11.7025 69.6719 11.8165 70.645 12.0511C72.5648 12.5138 73.7838 13.778 74.3816 15.6189C74.84 17.0363 74.8068 18.4927 74.7436 20.0078C71.5518 20.0078 68.3898 20.0143 65.2311 20.0176C65.0319 21.549 66.005 22.8164 67.606 23.1781C69.3729 23.5789 71.0403 23.2922 72.6412 22.5069C72.7508 22.4548 72.8571 22.3961 72.9634 22.344C72.9767 22.3375 72.9899 22.3407 73.0531 22.331M65.2411 17.1438C65.3142 17.1927 65.3374 17.222 65.3607 17.222C66.9051 17.2285 68.4529 17.2383 69.9974 17.2285C70.0738 17.2285 70.2166 17.0689 70.2199 16.9809C70.2431 16.2869 70.0804 15.6287 69.5124 15.1726C68.6954 14.5209 67.7521 14.4655 66.8188 14.8793C65.839 15.3127 65.4138 16.1566 65.2378 17.1373" fill="white"/>
<path d="M112.315 25.0029C111.422 25.6871 110.545 26.1075 109.555 26.2867C108.386 26.4985 107.227 26.4822 106.094 26.0847C104.633 25.5764 103.776 24.4295 103.706 22.9144C103.576 20.1383 104.905 18.3007 107.698 17.6262C108.984 17.3167 110.332 17.245 111.654 17.0723C111.817 17.0495 111.98 17.0527 112.132 17.043C112.371 15.6875 111.701 14.8436 110.362 14.6872C109.047 14.5374 107.831 14.8534 106.649 15.3584C106.25 15.5279 105.861 15.7364 105.426 15.9449C105.071 15.1043 104.719 14.2702 104.36 13.4165C105.556 12.7486 106.805 12.2989 108.11 12.0024C109.757 11.6277 111.412 11.5235 113.069 11.9438C115.218 12.4847 116.44 13.902 116.47 16.0687C116.513 19.2879 116.483 22.5103 116.497 25.7328C116.497 26.0521 116.377 26.14 116.068 26.1368C114.959 26.1238 113.849 26.1205 112.74 26.1433C112.385 26.1498 112.278 26.0227 112.312 25.7002C112.332 25.5112 112.312 25.319 112.312 25.0094M112.195 21.1288C112.195 20.9073 112.195 20.6824 112.195 20.4576C112.179 19.6431 112.345 19.6985 111.402 19.7245C110.568 19.7473 109.728 19.7897 108.98 20.2361C108.293 20.6433 107.991 21.3895 108.153 22.2562C108.269 22.8687 108.754 23.2858 109.535 23.4389C110.266 23.5856 110.913 23.3803 111.518 22.9893C111.986 22.6863 112.325 22.3246 112.205 21.7088C112.169 21.5198 112.199 21.3211 112.199 21.1288" fill="white"/>
<path d="M0.5 25.3617C0.915175 24.3972 1.30046 23.4947 1.67246 22.628C2.66888 22.8887 3.61215 23.1624 4.56872 23.3741C5.46882 23.5729 6.37888 23.5729 7.27566 23.3318C7.73402 23.208 8.11266 22.9669 8.26544 22.4911C8.47137 21.8493 8.20898 21.2986 7.50152 21.0868C6.63463 20.8262 5.73121 20.6861 4.861 20.4319C4.08047 20.2038 3.28334 19.9725 2.56923 19.6011C1.45989 19.0211 0.99821 17.9947 0.888604 16.7957C0.626213 13.847 2.55927 12.2244 4.97393 11.7291C7.2192 11.2697 9.44454 11.5532 11.64 12.1201C11.6964 12.1364 11.7429 12.1722 11.8293 12.2146C11.4606 13.1367 11.0986 14.0457 10.7631 14.8896C9.78332 14.7169 8.86661 14.5051 7.93994 14.4107C7.41184 14.3553 6.8472 14.4335 6.32574 14.5475C5.68471 14.6909 5.326 15.1405 5.33264 15.6227C5.33928 16.1147 5.70464 16.5416 6.33238 16.7012C7.1262 16.9032 7.92666 17.0661 8.72712 17.2453C8.95961 17.2975 9.19875 17.3496 9.43125 17.4148C11.3909 17.9524 12.5002 19.1384 12.7128 20.9272C12.9586 23.0125 12.1216 24.6481 10.3181 25.593C9.32497 26.1143 8.2588 26.3815 7.13616 26.4434C5.03371 26.5575 2.98773 26.2838 1.00817 25.5604C0.85539 25.505 0.702606 25.4431 0.5 25.3649" fill="white"/>
<path d="M98.7567 12.0191C99.1752 12.0191 99.5505 12.0191 99.9258 12.0191C100.716 12.0191 101.507 12.0191 102.297 12.0191C102.507 12.0191 102.696 12.0191 102.689 12.3123C102.683 13.1171 102.689 13.9186 102.689 14.7853C101.371 14.7853 100.089 14.7853 98.7534 14.7886C98.7534 15.0102 98.7534 15.1698 98.7534 15.3327C98.7534 17.2421 98.7633 19.1514 98.7567 21.0575C98.75 22.9147 99.5571 23.5273 101.503 23.3937C101.789 23.3741 102.071 23.3383 102.417 23.309C102.507 24.1952 102.6 25.0358 102.673 25.8765C102.679 25.9579 102.566 26.1143 102.493 26.1241C100.673 26.3848 98.8464 26.6813 97.0362 26.0948C95.2094 25.5018 94.3492 24.2897 94.3326 22.3022C94.316 19.992 94.3259 17.6787 94.3226 15.3653C94.3226 15.2024 94.3226 15.0395 94.3226 14.8179C93.5687 14.8179 92.8346 14.8179 92.0674 14.8179C92.0674 13.8763 92.0674 12.99 92.0674 12.0321C92.8081 12.0321 93.5388 12.0321 94.3226 12.0321C94.3226 11.097 94.3459 10.2335 94.3093 9.37336C94.2927 8.97585 94.4488 8.839 94.8109 8.74451C96.1129 8.40239 97.4016 8.03095 98.7567 7.65625C98.7567 9.11921 98.7567 10.5333 98.76 12.0191" fill="white"/>
<path d="M56.2662 11.3753C55.7945 9.33558 55.6019 7.33826 56.4057 5.37679C56.9769 3.98225 58.0929 3.06993 59.385 2.34334C61.2383 1.3007 63.2677 0.759824 65.3469 0.375349C66.0709 0.24176 66.805 0.12772 67.5456 0.00390625C67.2235 0.789148 66.8415 1.51248 66.6323 2.27818C66.2403 3.69552 65.9481 5.14219 65.6093 6.57257C65.1476 8.54382 64.0084 9.97094 62.0388 10.6454C61.4077 10.8637 60.7069 10.9126 60.0326 10.9745C59.0395 11.069 58.0365 11.0918 57.04 11.17C56.8075 11.1863 56.5784 11.2938 56.2695 11.3818" fill="white"/>
<path d="M2.86855 0.195312H0.513672V4.22905H1.32742V2.96484H2.86522C3.45311 2.96484 3.88822 2.84428 4.17054 2.60317C4.44953 2.36206 4.58903 2.02972 4.58903 1.6094V1.55727C4.58903 1.13369 4.44953 0.80135 4.17054 0.560238C3.89154 0.322385 3.45643 0.201829 2.86855 0.201829V0.195312ZM3.73875 1.60288C3.73875 1.83096 3.669 2.00365 3.52951 2.12746C3.39001 2.25128 3.16415 2.31319 2.85526 2.31319H1.32742V0.843707H2.85194C3.16083 0.843707 3.38669 0.905614 3.52618 1.02943C3.669 1.15324 3.73875 1.32919 3.73875 1.55401V1.60288Z" fill="white"/>
<path d="M7.06979 1.09375C6.43208 1.09375 5.94715 1.2306 5.60837 1.50103C5.27291 1.77473 5.10352 2.16246 5.10352 2.67075V2.74569C5.10352 3.25398 5.27291 3.64497 5.60505 3.91867C5.94051 4.19236 6.42876 4.32595 7.06647 4.32595C7.70417 4.32595 8.1891 4.1891 8.52456 3.91867C8.86002 3.64497 9.02941 3.25724 9.02941 2.74569V2.67075C9.02941 2.16246 8.86002 1.77473 8.52456 1.50103C8.1891 1.22734 7.70085 1.09375 7.06647 1.09375H7.06979ZM8.22231 2.74569C8.22231 3.05197 8.12267 3.28982 7.92339 3.45273C7.7241 3.61565 7.43846 3.70036 7.06979 3.70036C6.70111 3.70036 6.41879 3.61891 6.21951 3.45273C6.02022 3.28982 5.91726 3.05197 5.91726 2.74569V2.67075C5.91726 2.36447 6.0169 2.12988 6.21951 1.96371C6.41879 1.80079 6.70443 1.71608 7.06979 1.71608C7.43514 1.71608 7.7241 1.79754 7.92339 1.96371C8.12267 2.12662 8.22231 2.36447 8.22231 2.67075V2.74569Z" fill="white"/>
<path d="M13.7557 3.65921H13.6893L12.9154 1.28719H11.8459L11.0886 3.65921H11.0222L10.2417 1.19922H9.38477L10.431 4.22615H11.6068L12.1648 2.46994L12.3574 1.85739H12.4072L12.6032 2.46994L13.1645 4.22615H14.3403L15.3832 1.19922H14.5296L13.7557 3.65921Z" fill="white"/>
<path d="M18.625 1.28012C18.3493 1.15956 18.0072 1.09766 17.5987 1.09766C16.9975 1.09766 16.5391 1.23776 16.217 1.51471C15.8948 1.79493 15.7354 2.18266 15.7354 2.68117V2.7496C15.7354 3.25789 15.9014 3.64888 16.2336 3.92257C16.5657 4.19952 17.0672 4.33637 17.7348 4.33637C18.0637 4.33637 18.3559 4.30379 18.6183 4.24188C18.8774 4.17998 19.1099 4.092 19.3092 3.98448L19.3889 3.35889C19.1597 3.46967 18.9173 3.55439 18.6648 3.6163C18.4124 3.6782 18.1467 3.71079 17.8677 3.71079C17.6086 3.71079 17.3927 3.68798 17.2167 3.64562C17.044 3.6 16.9045 3.5381 16.8048 3.45664C16.7052 3.37518 16.6321 3.28395 16.5923 3.17969C16.5657 3.11452 16.5491 3.04284 16.5425 2.97116H19.4188C19.4288 2.91903 19.4387 2.86364 19.4454 2.79847C19.452 2.73331 19.4553 2.6714 19.4553 2.60949V2.58343C19.4553 2.28366 19.3856 2.023 19.2494 1.79818C19.1132 1.57336 18.904 1.40067 18.6283 1.28012H18.625ZM16.5358 2.42377C16.5624 2.22176 16.6454 2.05233 16.7916 1.92851C16.9709 1.77212 17.2399 1.69392 17.5987 1.69392C17.8411 1.69392 18.0437 1.72976 18.2065 1.79818C18.3692 1.86661 18.4888 1.96435 18.5718 2.09469C18.6316 2.18918 18.6615 2.30321 18.6781 2.42703H16.5391L16.5358 2.42377Z" fill="white"/>
<path d="M22.6012 1.15888C22.5215 1.14259 22.4285 1.13281 22.3255 1.13281C21.9867 1.13281 21.7077 1.21753 21.4918 1.38696C21.2759 1.55639 21.1231 1.78772 21.0434 2.08097H21.0102L21.0368 1.20449H20.2363V4.22816H21.0468V2.55667C21.153 2.34163 21.3058 2.16894 21.5117 2.04839C21.731 1.92131 21.9934 1.85615 22.2989 1.85615C22.4085 1.85615 22.5115 1.86592 22.6111 1.88221C22.7108 1.8985 22.8005 1.91805 22.8802 1.94086L22.8171 1.21427C22.754 1.19472 22.6842 1.17517 22.6045 1.15888H22.6012Z" fill="white"/>
<path d="M26.1054 1.28012C25.8298 1.15956 25.4877 1.09766 25.0791 1.09766C24.478 1.09766 24.0196 1.23776 23.6974 1.51471C23.3752 1.79493 23.2158 2.18266 23.2158 2.68117V2.7496C23.2158 3.25789 23.3819 3.64888 23.714 3.92257C24.0462 4.19952 24.5477 4.33637 25.2153 4.33637C25.5441 4.33637 25.8364 4.30379 26.0988 4.24188C26.3579 4.17998 26.5904 4.092 26.7897 3.98448L26.8694 3.35889C26.6402 3.46967 26.3977 3.55439 26.1453 3.6163C25.8929 3.6782 25.6272 3.71079 25.3482 3.71079C25.0891 3.71079 24.8732 3.68798 24.6972 3.64562C24.5211 3.60326 24.385 3.5381 24.2853 3.45664C24.1857 3.37518 24.1126 3.28395 24.0727 3.17969C24.0462 3.11452 24.0296 3.04284 24.0229 2.97116H26.8993C26.9092 2.91903 26.9192 2.86364 26.9258 2.79847C26.9325 2.73331 26.9358 2.6714 26.9358 2.60949V2.58343C26.9358 2.28366 26.866 2.023 26.7299 1.79818C26.5937 1.57336 26.3844 1.40067 26.1088 1.28012H26.1054ZM24.0163 2.42377C24.0429 2.22176 24.1259 2.05233 24.272 1.92851C24.4514 1.77212 24.7204 1.69392 25.0791 1.69392C25.3216 1.69392 25.5242 1.72976 25.6869 1.79818C25.8497 1.86661 25.9693 1.96435 26.0523 2.09469C26.1121 2.18918 26.142 2.30321 26.1586 2.42703H24.0196L24.0163 2.42377Z" fill="white"/>
<path d="M30.6516 1.20419L30.6616 1.97314H30.6284C30.5819 1.79393 30.4955 1.6408 30.3759 1.51047C30.253 1.38014 30.0936 1.27913 29.901 1.21071C29.705 1.14228 29.4725 1.10644 29.2035 1.10644C28.6887 1.10644 28.2834 1.24003 27.9845 1.50721C27.6856 1.77439 27.5361 2.16864 27.5361 2.68344V2.74209C27.5361 3.26015 27.6823 3.65115 27.9746 3.91832C28.2668 4.1855 28.6687 4.31583 29.1869 4.31583C29.4825 4.31583 29.7316 4.27673 29.9309 4.19853C30.1301 4.12034 30.2863 4.01607 30.4025 3.88248C30.5188 3.75215 30.5985 3.60879 30.6416 3.45239H30.6749L30.6483 4.2246H31.4587V0.0703125H30.6549V1.20419H30.6516ZM30.4523 3.29599C30.3394 3.41003 30.1966 3.50452 30.0272 3.56969C29.8578 3.63811 29.6652 3.6707 29.4526 3.6707C29.1072 3.6707 28.8381 3.58924 28.6455 3.42958C28.4528 3.26993 28.3565 3.03859 28.3565 2.73557V2.67692C28.3565 2.37065 28.4528 2.13605 28.6488 1.97966C28.8448 1.82326 29.1138 1.7418 29.4592 1.7418C29.6917 1.7418 29.8943 1.77764 30.0704 1.84933C30.2464 1.92101 30.3859 2.02853 30.4922 2.16864C30.5951 2.30874 30.6549 2.48795 30.6649 2.70299V2.96691C30.6184 3.08747 30.552 3.20151 30.4523 3.30251V3.29599Z" fill="white"/>
<path d="M37.1324 1.10644C36.8401 1.10644 36.591 1.14554 36.3917 1.22374C36.1924 1.30194 36.033 1.40946 35.9168 1.53979C35.8005 1.67338 35.7208 1.81674 35.6743 1.97314H35.6411L35.6544 1.20419V0.0703125H34.8506V4.22786H35.661L35.6311 3.45565H35.661C35.7142 3.63485 35.8038 3.78799 35.9267 3.91832C36.0496 4.04865 36.2124 4.1464 36.4083 4.21483C36.6043 4.28325 36.8368 4.31909 37.1025 4.31909C37.6206 4.31909 38.0258 4.1855 38.3215 3.91832C38.6171 3.65115 38.7665 3.26015 38.7665 2.74535V2.68344C38.7665 2.17189 38.6204 1.7809 38.3248 1.51047C38.0325 1.24329 37.6306 1.1097 37.1257 1.1097L37.1324 1.10644ZM37.9528 2.73232C37.9528 3.03859 37.8565 3.26993 37.6605 3.42958C37.4679 3.58924 37.1988 3.6707 36.86 3.6707C36.6342 3.6707 36.4316 3.63485 36.2522 3.56643C36.0729 3.49801 35.93 3.39048 35.8204 3.25038C35.7108 3.10702 35.6544 2.93107 35.6411 2.71602V2.4521C35.6909 2.33155 35.7573 2.21751 35.8537 2.11976C35.9666 2.00246 36.1061 1.91123 36.2755 1.84281C36.4449 1.77439 36.6342 1.7418 36.8467 1.7418C37.1955 1.7418 37.4645 1.82 37.6572 1.97966C37.8498 2.13931 37.9461 2.37065 37.9461 2.67041V2.73232H37.9528Z" fill="white"/>
<path d="M42.2139 1.19922L41.0946 3.56798H40.9983L39.9122 1.19922H39.042L40.437 4.09582H40.7891L40.2045 5.2916H41.0647L43.0841 1.19922H42.2139Z" fill="white"/>
</g>
<defs>
<clipPath id="clip0_1271_23565">
<rect width="116" height="34" fill="white" transform="translate(0.5)"/>
</clipPath>
</defs>
</svg>
